<svg width="48" height="48" viewBox="0 0 48 48" fill="none" xmlns="http://www.w3.org/2000/svg">
<rect width="48" height="48" rx="10" fill="url(#paint0_linear_1490_931)"/>
<rect x="13.5986" y="11.75" width="25.6514" height="20.5332" rx="5.25" stroke="#F6F7FB" stroke-width="1.5"/>
<rect x="8" y="14.9668" width="27.1514" height="22.0332" rx="6" fill="#F6F7FB"/>
<path d="M21.423 32.9977C21.1928 32.9977 20.9983 32.9055 20.8395 32.721C20.6807 32.5366 20.6014 32.306 20.6014 32.0293V31.0056L20.9586 31.3791C20.4267 31.3515 19.9663 31.2731 19.5773 31.1439C19.1884 31.0148 18.8708 30.8857 18.6248 30.7566C18.4184 30.6459 18.2715 30.4891 18.1842 30.2862C18.1048 30.0833 18.0731 29.8758 18.0889 29.6637C18.1127 29.4516 18.1802 29.2579 18.2914 29.0827C18.4025 28.9075 18.5454 28.7922 18.72 28.7368C18.9026 28.6723 19.113 28.7 19.3511 28.8198C19.5099 28.9213 19.748 29.0274 20.0655 29.138C20.391 29.2395 20.7919 29.2902 21.2682 29.2902C21.6016 29.2902 21.8635 29.2533 22.0541 29.1795C22.2525 29.1058 22.3914 29.0089 22.4708 28.889C22.5581 28.7599 22.6018 28.6216 22.6018 28.474C22.6018 28.3357 22.57 28.2204 22.5065 28.1282C22.451 28.0267 22.3557 27.9391 22.2208 27.8653C22.0858 27.7823 21.8993 27.7085 21.6611 27.644L20.3156 27.312C19.5773 27.1183 19.0256 26.7955 18.6605 26.3436C18.3033 25.8824 18.1247 25.2876 18.1247 24.559C18.1247 24.0056 18.2398 23.5122 18.47 23.0788C18.7081 22.6361 19.0375 22.2764 19.4583 21.9997C19.8869 21.723 20.387 21.5478 20.9586 21.474L20.6014 21.7092V20.7823C20.6014 20.5057 20.6807 20.2751 20.8395 20.0906C20.9983 19.9062 21.1928 19.814 21.423 19.814C21.6611 19.814 21.8596 19.9062 22.0183 20.0906C22.1771 20.2751 22.2565 20.5057 22.2565 20.7823V21.7092L21.8993 21.4464C22.2009 21.4556 22.5264 21.5155 22.8757 21.6262C23.2249 21.7277 23.5306 21.8706 23.7925 22.0551C23.9751 22.1657 24.1021 22.3179 24.1735 22.5116C24.2529 22.7053 24.2807 22.9035 24.2569 23.1064C24.241 23.3001 24.1775 23.4753 24.0664 23.6321C23.9632 23.7889 23.8203 23.895 23.6377 23.9503C23.4631 23.9964 23.2527 23.9595 23.0066 23.8396C22.8241 23.7474 22.6177 23.6736 22.3875 23.6183C22.1652 23.5537 21.8794 23.5215 21.5301 23.5215C21.1094 23.5215 20.7839 23.6091 20.5537 23.7843C20.3315 23.9595 20.2203 24.1855 20.2203 24.4622C20.2203 24.6466 20.2838 24.8034 20.4108 24.9325C20.5458 25.0524 20.7879 25.1585 21.1372 25.2507L22.4946 25.5965C23.2488 25.7902 23.8044 26.113 24.1616 26.5649C24.5268 27.0076 24.7094 27.584 24.7094 28.2942C24.7094 28.8475 24.5943 29.3363 24.3641 29.7606C24.1339 30.1848 23.8124 30.5306 23.3996 30.7981C22.9947 31.0656 22.5224 31.2408 21.9826 31.3238L22.2565 30.9918V32.0293C22.2565 32.306 22.1771 32.5366 22.0183 32.721C21.8675 32.9055 21.6691 32.9977 21.423 32.9977Z" fill="#3B6647"/>
<defs>
<linearGradient id="paint0_linear_1490_931" x1="24" y1="24" x2="24" y2="51.6" gradientUnits="userSpaceOnUse">
<stop stop-color="#60C470"/>
<stop offset="1" stop-color="#60C470" stop-opacity="0"/>
</linearGradient>
</defs>
</svg>
